HIERARCHY
ROOT Root
{
  OFFSET 0.0 0.0 0.0
  CHANNELS 6 Xposition Yposition Zposition Zrotation Yrotation Xrotation
  JOINT Hips
  {
    OFFSET 0.0 100.0 0.0
    CHANNELS 6 Xposition Yposition Zposition Zrotation Yrotation Xrotation
    JOINT Spine1
    {
      OFFSET 5.003913 -0.037094 -0.013727
      CHANNELS 3 Zrotation Yrotation Xrotation
      JOINT Spine2
      {
        OFFSET 7.125363 -1e-06 0.0
        CHANNELS 3 Zrotation Yrotation Xrotation
        JOINT Chest
        {
          OFFSET 7.594027 1e-06 0.0
          CHANNELS 3 Zrotation Yrotation Xrotation
          JOINT Neck1
          {
            OFFSET 26.313086 -0.460272 -0.181672
            CHANNELS 3 Zrotation Yrotation Xrotation
            JOINT Neck2
            {
              OFFSET 8.045911 0.0 0.0
              CHANNELS 3 Zrotation Yrotation Xrotation
              JOINT Head
              {
                OFFSET 6.432774 0.0 0.0
                CHANNELS 3 Zrotation Yrotation Xrotation
                JOINT HeadEnd
                {
                  OFFSET 16.169773 0.06451 0.00362
                  CHANNELS 3 Zrotation Yrotation Xrotation
                }
                JOINT Jaw
                {
                  OFFSET 0.108741 3.12938 0.002639
                  CHANNELS 3 Zrotation Yrotation Xrotation
                }
                JOINT LeftEye
                {
                  OFFSET 4.45173 8.166359 3.206392
                  CHANNELS 3 Zrotation Yrotation Xrotation
                }
                JOINT RightEye
                {
                  OFFSET 4.436895 8.135758 -3.222429
                  CHANNELS 3 Zrotation Yrotation Xrotation
                }
              }
            }
          }
          JOINT LeftShoulder
          {
            OFFSET 23.218927 5.195579 1.621656
            CHANNELS 3 Zrotation Yrotation Xrotation
            JOINT LeftArm
            {
              OFFSET 15.902118 2e-06 -2e-06
              CHANNELS 3 Zrotation Yrotation Xrotation
              JOINT LeftForeArm
              {
                OFFSET 28.739307 0.0 -1e-06
                CHANNELS 3 Zrotation Yrotation Xrotation
                JOINT LeftHand
                {
                  OFFSET 27.093981 -4e-06 0.0
                  CHANNELS 3 Zrotation Yrotation Xrotation
                  JOINT LeftHandThumb1
                  {
                    OFFSET 2.276781 3.380274 0.83384
                    CHANNELS 3 Zrotation Yrotation Xrotation
                    JOINT LeftHandThumb2
                    {
                      OFFSET 4.705309 -1e-06 -1e-06
                      CHANNELS 3 Zrotation Yrotation Xrotation
                      JOINT LeftHandThumb3
                      {
                        OFFSET 2.798515 0.0 3e-06
                        CHANNELS 3 Zrotation Yrotation Xrotation
                        JOINT LeftHandThumbEnd
                        {
                          OFFSET 3.180793 4e-06 -4e-06
                          CHANNELS 3 Zrotation Yrotation Xrotation
                        }
                      }
                    }
                  }
                  JOINT LeftHandIndex1
                  {
                    OFFSET 3.247786 2.352677 0.137192
                    CHANNELS 3 Zrotation Yrotation Xrotation
                    JOINT LeftHandIndex2
                    {
                      OFFSET 6.367095 1e-06 0.0
                      CHANNELS 3 Zrotation Yrotation Xrotation
                      JOINT LeftHandIndex3
                      {
                        OFFSET 3.662364 0.0 0.0
                        CHANNELS 3 Zrotation Yrotation Xrotation
                        JOINT LeftHandIndex4
                        {
                          OFFSET 2.329242 4e-06 -4e-06
                          CHANNELS 3 Zrotation Yrotation Xrotation
                          JOINT LeftHandIndexEnd
                          {
                            OFFSET 2.767823 1e-06 0.0
                            CHANNELS 3 Zrotation Yrotation Xrotation
                          }
                        }
                      }
                    }
                  }
                  JOINT LeftHandMiddle1
                  {
                    OFFSET 3.163612 0.945023 -0.406112
                    CHANNELS 3 Zrotation Yrotation Xrotation
                    JOINT LeftHandMiddle2
                    {
                      OFFSET 6.276789 3e-06 0.0
                      CHANNELS 3 Zrotation Yrotation Xrotation
                      JOINT LeftHandMiddle3
                      {
                        OFFSET 4.35652 -1e-06 4e-06
                        CHANNELS 3 Zrotation Yrotation Xrotation
                        JOINT LeftHandMiddle4
                        {
                          OFFSET 2.996877 0.0 8e-06
                          CHANNELS 3 Zrotation Yrotation Xrotation
                          JOINT LeftHandMiddleEnd
                          {
                            OFFSET 2.323256 3e-06 -4e-06
                            CHANNELS 3 Zrotation Yrotation Xrotation
                          }
                        }
                      }
                    }
                  }
                  JOINT LeftHandRing1
                  {
                    OFFSET 2.882606 -0.309162 0.107445
                    CHANNELS 3 Zrotation Yrotation Xrotation
                    JOINT LeftHandRing2
                    {
                      OFFSET 6.033198 0.0 4e-06
                      CHANNELS 3 Zrotation Yrotation Xrotation
                      JOINT LeftHandRing3
                      {
                        OFFSET 4.350578 3e-06 0.0
                        CHANNELS 3 Zrotation Yrotation Xrotation
                        JOINT LeftHandRing4
                        {
                          OFFSET 2.651321 2e-06 -7e-06
                          CHANNELS 3 Zrotation Yrotation Xrotation
                          JOINT LeftHandRingEnd
                          {
                            OFFSET 1.937663 1e-06 -4e-06
                            CHANNELS 3 Zrotation Yrotation Xrotation
                          }
                        }
                      }
                    }
                  }
                  JOINT LeftHandPinky1
                  {
                    OFFSET 2.865315 -1.525436 0.575687
                    CHANNELS 3 Zrotation Yrotation Xrotation
                    JOINT LeftHandPinky2
                    {
                      OFFSET 5.54936 1e-06 -8e-06
                      CHANNELS 3 Zrotation Yrotation Xrotation
                      JOINT LeftHandPinky3
                      {
                        OFFSET 3.070974 0.0 -4e-06
                        CHANNELS 3 Zrotation Yrotation Xrotation
                        JOINT LeftHandPinky4
                        {
                          OFFSET 1.549672 1e-06 0.0
                          CHANNELS 3 Zrotation Yrotation Xrotation
                          JOINT LeftHandPinkyEnd
                          {
                            OFFSET 1.952123 0.0 0.0
                            CHANNELS 3 Zrotation Yrotation Xrotation
                          }
                        }
                      }
                    }
                  }
                }
              }
            }
          }
          JOINT RightShoulder
          {
            OFFSET 23.161716 5.296122 -1.380114
            CHANNELS 3 Zrotation Yrotation Xrotation
            JOINT RightArm
            {
              OFFSET -16.027195 -2e-06 1.1e-05
              CHANNELS 3 Zrotation Yrotation Xrotation
              JOINT RightForeArm
              {
                OFFSET -28.736639 4e-06 2e-06
                CHANNELS 3 Zrotation Yrotation Xrotation
                JOINT RightHand
                {
                  OFFSET -27.133619 6e-06 0.0
                  CHANNELS 3 Zrotation Yrotation Xrotation
                  JOINT RightHandThumb1
                  {
                    OFFSET -2.274328 -3.351035 -0.83067
                    CHANNELS 3 Zrotation Yrotation Xrotation
                    JOINT RightHandThumb2
                    {
                      OFFSET -4.703594 -3e-06 2e-06
                      CHANNELS 3 Zrotation Yrotation Xrotation
                      JOINT RightHandThumb3
                      {
                        OFFSET -2.794935 -4e-06 -3e-06
                        CHANNELS 3 Zrotation Yrotation Xrotation
                        JOINT RightHandThumbEnd
                        {
                          OFFSET -3.183852 4e-06 1e-06
                          CHANNELS 3 Zrotation Yrotation Xrotation
                        }
                      }
                    }
                  }
                  JOINT RightHandIndex1
                  {
                    OFFSET -3.253496 -2.33755 -0.127667
                    CHANNELS 3 Zrotation Yrotation Xrotation
                    JOINT RightHandIndex2
                    {
                      OFFSET -6.344434 0.0 0.0
                      CHANNELS 3 Zrotation Yrotation Xrotation
                      JOINT RightHandIndex3
                      {
                        OFFSET -3.654871 0.0 -8e-06
                        CHANNELS 3 Zrotation Yrotation Xrotation
                        JOINT RightHandIndex4
                        {
                          OFFSET -2.327586 -1e-06 0.0
                          CHANNELS 3 Zrotation Yrotation Xrotation
                          JOINT RightHandIndexEnd
                          {
                            OFFSET -2.770001 3e-06 8e-06
                            CHANNELS 3 Zrotation Yrotation Xrotation
                          }
                        }
                      }
                    }
                  }
                  JOINT RightHandMiddle1
                  {
                    OFFSET -3.168223 -0.944764 0.411762
                    CHANNELS 3 Zrotation Yrotation Xrotation
                    JOINT RightHandMiddle2
                    {
                      OFFSET -6.266691 -1e-06 -4e-06
                      CHANNELS 3 Zrotation Yrotation Xrotation
                      JOINT RightHandMiddle3
                      {
                        OFFSET -4.348901 0.0 0.0
                        CHANNELS 3 Zrotation Yrotation Xrotation
                        JOINT RightHandMiddle4
                        {
                          OFFSET -3.00024 2e-06 -4e-06
                          CHANNELS 3 Zrotation Yrotation Xrotation
                          JOINT RightHandMiddleEnd
                          {
                            OFFSET -2.321477 -4e-06 -4e-06
                            CHANNELS 3 Zrotation Yrotation Xrotation
                          }
                        }
                      }
                    }
                  }
                  JOINT RightHandRing1
                  {
                    OFFSET -2.885654 0.293261 -0.119232
                    CHANNELS 3 Zrotation Yrotation Xrotation
                    JOINT RightHandRing2
                    {
                      OFFSET -6.032835 -1e-06 -4e-06
                      CHANNELS 3 Zrotation Yrotation Xrotation
                      JOINT RightHandRing3
                      {
                        OFFSET -4.33881 0.0 -4e-06
                        CHANNELS 3 Zrotation Yrotation Xrotation
                        JOINT RightHandRing4
                        {
                          OFFSET -2.654903 -4e-06 -4e-06
                          CHANNELS 3 Zrotation Yrotation Xrotation
                          JOINT RightHandRingEnd
                          {
                            OFFSET -1.935122 0.0 4e-06
                            CHANNELS 3 Zrotation Yrotation Xrotation
                          }
                        }
                      }
                    }
                  }
                  JOINT RightHandPinky1
                  {
                    OFFSET -2.866241 1.503904 -0.60527
                    CHANNELS 3 Zrotation Yrotation Xrotation
                    JOINT RightHandPinky2
                    {
                      OFFSET -5.553177 -2e-06 0.0
                      CHANNELS 3 Zrotation Yrotation Xrotation
                      JOINT RightHandPinky3
                      {
                        OFFSET -3.062664 -1e-06 -4e-06
                        CHANNELS 3 Zrotation Yrotation Xrotation
                        JOINT RightHandPinky4
                        {
                          OFFSET -1.546529 2e-06 4e-06
                          CHANNELS 3 Zrotation Yrotation Xrotation
                          JOINT RightHandPinkyEnd
                          {
                            OFFSET -1.952341 0.0 -4e-06
                            CHANNELS 3 Zrotation Yrotation Xrotation
                          }
                        }
                      }
                    }
                  }
                }
              }
            }
          }
        }
      }
    }
    JOINT LeftLeg
    {
      OFFSET -8.443107 2.567604 10.043214
      CHANNELS 3 Zrotation Yrotation Xrotation
      JOINT LeftShin
      {
        OFFSET 43.229198 1e-06 -1e-06
        CHANNELS 3 Zrotation Yrotation Xrotation
        JOINT LeftFoot
        {
          OFFSET 42.298611 1e-06 1e-06
          CHANNELS 3 Zrotation Yrotation Xrotation
          JOINT LeftToeBase
          {
            OFFSET 14.165858 1e-06 0.0
            CHANNELS 3 Zrotation Yrotation Xrotation
            JOINT LeftToeEnd
            {
              OFFSET 6.7141 -0.234461 0.0
              CHANNELS 3 Zrotation Yrotation Xrotation
            }
          }
        }
      }
    }
    JOINT RightLeg
    {
      OFFSET -8.303923 2.592729 -10.047278
      CHANNELS 3 Zrotation Yrotation Xrotation
      JOINT RightShin
      {
        OFFSET -43.369682 0.0 1e-06
        CHANNELS 3 Zrotation Yrotation Xrotation
        JOINT RightFoot
        {
          OFFSET -42.260784 4e-06 2e-06
          CHANNELS 3 Zrotation Yrotation Xrotation
          JOINT RightToeBase
          {
            OFFSET -14.222245 -2e-06 -1e-06
            CHANNELS 3 Zrotation Yrotation Xrotation
            JOINT RightToeEnd
            {
              OFFSET -6.660062 0.232574 -2e-06
              CHANNELS 3 Zrotation Yrotation Xrotation
            }
          }
        }
      }
    }
  }
}
MOTION
Frames: 4
Frame Time: 0.03333333333333333
0.0 0.0 0.0 0.0 -0.0 0.0 4.299472 100.142738 -0.401896 91.415237 0.813428 91.324951 -2.764093 0.320072 0.098664 -11.774734 -0.104387 0.164289 16.729412 0.801451 -1.840627 33.047821 -1.899527 2.093078 -2.643334 -0.728227 -0.87387 -31.5418 -0.489397 -1.628807 6e-06 -0.0 0.0 0.019288 0.025897 0.007483 -0.03088 -0.010017 0.01549 0.001493 0.052546 0.009825 -143.936966 -65.798401 160.112473 23.024529 -30.434736 10.102558 65.359108 0.986901 0.462614 -4.757718 10.059093 -58.025204 17.636631 -26.322725 52.411182 -19.466663 -14.395598 29.410385 -0.0 -8.774821 -2e-06 16.393373 -17.720392 6.095374 -0.609774 -1.795653 -3.889326 -4.807088 -11.04681 -2.93785 4e-06 -20.976015 1e-06 -5.019971 -25.033558 -4.031879 7e-06 1e-06 2e-06 -10.634535 -5.686969 -3.565586 10.573276 -17.922947 -3.1139 3e-06 -13.821206 1e-06 -0.501778 -31.181505 -4.027017 -11.220555 -59.01022 7.303419 -13.982716 -7.150197 -2.87504 13.772731 -8.401491 -3.218241 0.347734 -34.211544 0.771655 -0.963027 -17.73337 2.621019 -1e-06 -0.0 1e-06 -17.346416 -20.095213 -4.201781 21.757563 -1.638376 3.866428 2e-06 -6.338821 0.0 -1.697592 -22.591738 -6.194002 -1e-06 -5e-06 -4e-06 49.887768 -78.429276 143.90239 34.243084 -44.428101 7.322172 53.586052 0.481246 0.78554 8.891876 5.74785 -35.212967 22.182116 -20.375887 49.9333 -16.701811 -16.743528 28.476526 -1e-06 -12.6906 -2e-06 16.402538 -16.809425 2.66248 -0.105921 -1.513855 -4.27588 -5.03904 -5.61287 -2.953557 3e-06 -11.020523 -1e-06 -6.111294 -15.89533 -3.840471 -1e-06 1e-06 -0.0 -10.28337 -5.680288 -4.341837 11.028292 -11.302403 -2.372633 -1.38427 -14.238574 -6.320119 -0.625437 -26.924183 -3.8276 -4.336306 -49.794609 -3.131658 -13.708523 -7.363475 -3.720938 18.141146 -14.052738 -3.242674 8e-06 -18.787268 -1e-06 -0.429712 -8.456043 2.555504 0.0 -0.0 -1e-06 -15.923538 -20.094482 -5.47358 30.41921 -7.190825 1.735926 4e-06 -8.162925 1e-06 -1.861903 -22.861467 -6.167941 0.0 -1e-06 -3e-06 175.731537 -0.341155 -12.876207 13.214341 -0.010549 0.010131 -76.850708 -6.087856 -4.67453 -6.585251 1.471191 2.05372 -0.999999 -1e-06 0.0 -3.544832 -7.22788 -7.246874 14.488491 0.062294 -0.084062 -78.008842 -3.475546 -8.071678 -6.535986 0.79153 1.675836 -1.000002 0.0 -0.0 
0.0 0.0 0.0 0.0 -0.0 0.0 4.274951 100.136856 -0.298946 91.390663 0.69399 91.329475 -2.786592 0.321945 0.104161 -11.790961 -0.084594 0.225677 16.654699 0.737899 -1.849329 32.636158 -1.993027 2.104713 -2.644893 -0.735885 -0.915752 -31.797209 -0.50954 -1.655513 6e-06 0.0 0.0 0.017553 0.027377 0.01788 -0.019628 -0.009555 0.025783 0.013209 0.055015 0.020499 -144.11087 -65.561363 160.314484 23.1408 -30.851589 11.112309 65.003883 0.898345 0.502743 -4.935923 9.91295 -56.438454 17.636635 -26.322727 52.411179 -19.46666 -14.395596 29.410381 -1e-06 -8.774822 -3e-06 16.430626 -17.703569 6.072115 -0.609774 -1.795654 -3.889325 -4.807086 -11.046809 -2.937851 5e-06 -20.976015 2e-06 -5.019969 -25.033554 -4.031878 6e-06 1e-06 -1e-06 -10.634533 -5.686969 -3.565588 10.573276 -17.922949 -3.113899 3e-06 -13.821208 1e-06 -0.501779 -31.181505 -4.027013 -11.274986 -59.088322 7.338558 -13.982712 -7.150198 -2.875041 13.772731 -8.401493 -3.21824 0.347738 -34.211555 0.771654 -0.963028 -17.73337 2.621019 -0.0 -2e-06 2e-06 -17.346415 -20.095215 -4.201779 21.757557 -1.638375 3.866429 1e-06 -6.338823 1e-06 -1.697588 -22.591745 -6.194005 0.0 -4e-06 -2e-06 49.811661 -78.393982 144.017273 34.380489 -45.332592 8.315468 52.632206 0.458485 0.724205 8.560539 5.440032 -33.168713 22.182116 -20.375898 49.933319 -16.701811 -16.743528 28.476522 -1e-06 -12.690599 -2e-06 16.338394 -16.82226 2.722614 -0.105923 -1.513855 -4.275882 -5.03904 -5.612871 -2.953556 2e-06 -11.020523 -1e-06 -6.111295 -15.895334 -3.840469 -0.0 -1e-06 -0.0 -10.283369 -5.680288 -4.341839 11.028286 -11.302403 -2.372632 -1.38427 -14.238579 -6.32012 -0.62544 -26.924187 -3.8276 -4.366278 -49.846081 -3.09045 -13.708526 -7.363476 -3.72094 18.141146 -14.052739 -3.242672 8e-06 -18.78727 -1e-06 -0.429714 -8.456042 2.555503 -1e-06 -1e-06 -1e-06 -15.923536 -20.094482 -5.473586 30.419207 -7.190827 1.735928 2e-06 -8.162924 -0.0 -1.861902 -22.861467 -6.167943 1e-06 -3e-06 -2e-06 175.596039 -0.401791 -12.883239 13.389391 -0.017955 0.0172 -76.98912 -6.056889 -4.702536 -6.560744 1.472588 2.052643 -0.999999 1e-06 -0.0 -3.620366 -7.208549 -7.309852 14.555859 0.062274 -0.089348 -78.110275 -3.401519 -8.067816 -6.524701 0.784462 1.672193 -1.000001 -1e-06 -0.0 
0.0 0.0 0.0 0.0 -0.0 0.0 4.249182 100.13356 -0.183329 91.367607 0.532353 91.342232 -2.812631 0.325042 0.101835 -11.81439 -0.066238 0.277734 16.569939 0.664628 -1.854946 32.144806 -2.057405 2.123339 -2.650929 -0.755994 -0.948485 -32.032814 -0.573007 -1.655624 6e-06 -0.0 0.0 0.016792 0.028844 0.023486 -0.015936 -0.008693 0.029328 0.014118 0.057322 0.027941 -144.228577 -65.35775 160.459961 23.162197 -31.39558 12.032293 64.431129 0.770776 0.518758 -5.072743 9.683429 -54.831501 17.636625 -26.322729 52.411205 -19.46666 -14.395596 29.410389 0.0 -8.774821 -3e-06 16.479294 -17.677984 6.023679 -0.609776 -1.795653 -3.889328 -4.807088 -11.046811 -2.937852 3e-06 -20.976019 0.0 -5.019969 -25.03356 -4.031883 7e-06 2e-06 1e-06 -10.634531 -5.686971 -3.565588 10.573272 -17.922949 -3.113901 2e-06 -13.821209 0.0 -0.501775 -31.181505 -4.027017 -11.270189 -59.13821 7.334782 -13.982714 -7.150199 -2.875043 13.77273 -8.401491 -3.218241 0.347733 -34.211555 0.771653 -0.963027 -17.73337 2.621018 1e-06 -1e-06 0.0 -17.346415 -20.095219 -4.201784 21.757557 -1.638376 3.86643 0.0 -6.338824 1e-06 -1.697589 -22.591747 -6.194006 1e-06 -4e-06 -2e-06 49.902859 -78.330864 143.964905 34.488579 -46.337936 9.247908 51.51326 0.417547 0.664452 8.198145 5.197662 -31.065409 22.182112 -20.375889 49.933315 -16.701817 -16.743526 28.476534 -3e-06 -12.690601 -0.0 16.277983 -16.839199 2.776564 -0.105921 -1.513857 -4.275881 -5.039039 -5.612868 -2.953557 3e-06 -11.020523 -3e-06 -6.111296 -15.895334 -3.840471 0.0 -0.0 -1e-06 -10.283369 -5.680287 -4.341838 11.028296 -11.302407 -2.372635 -1.384266 -14.238577 -6.32012 -0.625434 -26.924189 -3.827599 -4.397938 -49.89283 -3.065325 -13.708524 -7.363475 -3.72094 18.141148 -14.05274 -3.242675 8e-06 -18.78727 -3e-06 -0.42971 -8.456042 2.555506 -2e-06 -0.0 -1e-06 -15.923532 -20.094482 -5.473585 30.41921 -7.190828 1.735926 4e-06 -8.162921 -0.0 -1.861899 -22.861469 -6.167942 -0.0 -2e-06 -1e-06 175.431732 -0.464121 -12.931669 13.543562 -0.023919 0.024788 -77.121262 -5.989107 -4.684995 -6.516182 1.461641 2.049702 -0.999998 1e-06 0.0 -3.727481 -7.19822 -7.424163 14.615395 0.059873 -0.092524 -78.21109 -3.290835 -8.060815 -6.484758 0.779449 1.669433 -1.000003 -0.0 -0.0 
0.0 0.0 0.0 0.0 -0.0 0.0 4.22318 100.132767 -0.055809 91.351357 0.345509 91.339371 -2.84644 0.324377 0.0858 -11.833348 -0.055071 0.310337 16.477526 0.579927 -1.830987 31.598804 -2.117215 2.141404 -2.672894 -0.76589 -0.977749 -32.233047 -0.638738 -1.619105 6e-06 0.0 -0.0 0.016597 0.030339 0.022371 -0.016384 -0.006922 0.026459 0.010436 0.058792 0.028327 -144.299713 -65.18293 160.593033 23.09396 -32.047791 12.837175 63.629818 0.627083 0.495866 -5.145283 9.421723 -53.170471 17.636631 -26.322725 52.411182 -19.46665 -14.395594 29.410378 1e-06 -8.774819 -4e-06 16.510077 -17.657726 5.976897 -0.609779 -1.795653 -3.889328 -4.80709 -11.046809 -2.937847 1e-06 -20.976013 -0.0 -5.019972 -25.033556 -4.031878 8e-06 1e-06 -0.0 -10.634535 -5.686968 -3.565586 10.573271 -17.922947 -3.113899 2e-06 -13.821208 1e-06 -0.501778 -31.181498 -4.027017 -11.231786 -59.192379 7.2901 -13.982716 -7.150197 -2.875041 13.772729 -8.401489 -3.218241 0.347734 -34.21154 0.771657 -0.963031 -17.733362 2.621018 1e-06 -0.0 4e-06 -17.346418 -20.095213 -4.20178 21.757563 -1.638373 3.866428 1e-06 -6.338822 1e-06 -1.697592 -22.591743 -6.194004 -0.0 -7e-06 -0.0 49.980396 -78.252747 143.944519 34.55162 -47.424198 10.155225 50.252171 0.395906 0.594698 7.82254 5.000221 -28.785412 22.182116 -20.375891 49.933308 -16.701807 -16.743532 28.476521 -1e-06 -12.6906 -0.0 16.208622 -16.835688 2.825467 -0.10592 -1.513857 -4.275881 -5.039041 -5.612869 -2.953557 5e-06 -11.02052 -1e-06 -6.111296 -15.89533 -3.840469 -1e-06 0.0 -1e-06 -10.283365 -5.680285 -4.341839 11.028291 -11.302406 -2.372632 -1.384268 -14.238576 -6.32012 -0.625437 -26.924187 -3.827598 -4.443549 -49.926376 -3.035549 -13.708525 -7.363474 -3.720939 18.141146 -14.052738 -3.242673 7e-06 -18.787268 -0.0 -0.429711 -8.456041 2.555504 -0.0 -1e-06 -0.0 -15.923534 -20.094479 -5.473583 30.419205 -7.190826 1.735926 4e-06 -8.162921 -1e-06 -1.861901 -22.861464 -6.16794 -1e-06 -3e-06 -4e-06 175.271011 -0.522225 -13.023362 13.655686 -0.026736 0.033073 -77.240891 -5.900873 -4.644786 -6.470894 1.43965 2.047067 -0.999999 1e-06 0.0 -3.856275 -7.192929 -7.542068 14.669436 0.05603 -0.09983 -78.313126 -3.167481 -8.041432 -6.433204 0.771619 1.665922 -1.000001 -1e-06 0.0 
